# xmcd CD database file
#
# Track frame offsets:
#	150
#	23180
#	46950
#
# Disc length: 930 seconds
#
# Revision: 4
# Processed by: cddbd v1.5PL3 Copyright (c) Steve Scherf et al.
# Submitted via: CDex 1.50beta9
#
DISCID=1c03a003
DTITLE=鬼束ちひろ - シャイン
DYEAR=2000
DGENRE=JPop
TTITLE0=シャイン
TTITLE1=BACK DOOR
TTITLE2=シャイン(Inst.)
EXTD=YEAR: 2000
EXTT0=
EXTT1=
EXTT2=
PLAYORDER=
